<svg width="44" height="44" viewBox="0 0 44 44" fill="none" xmlns="http://www.w3.org/2000/svg">
<path d="M43.7482 22.0039C43.7467 22.2371 43.6118 22.4493 43.401 22.549L19.1902 34.0326C18.9493 35.0318 18.2516 35.9071 17.2317 36.3297C15.5383 37.031 13.5901 36.2241 12.8886 34.5307C11.2348 30.5378 10.3961 26.3218 10.3961 22C10.3961 17.6781 11.2347 13.4622 12.8886 9.4692C13.0604 9.05455 13.3068 8.69314 13.606 8.39391C14.5288 7.4712 15.953 7.14059 17.2317 7.67031C18.092 8.0267 18.7229 8.70526 19.0441 9.50847L43.408 21.4543C43.6175 21.557 43.7497 21.7706 43.7482 22.0039ZM21.9437 31.3815L24.5095 30.1644C24.495 29.7057 24.2775 29.2718 23.9048 28.9857C23.5765 28.7339 23.1698 28.6249 22.7596 28.6789C22.3494 28.7329 21.9851 28.9433 21.733 29.2716C21.4812 29.5998 21.3722 30.0065 21.4262 30.4167C21.4759 30.7946 21.6588 31.1336 21.9437 31.3815ZM16.7666 8.79321C15.6924 8.34823 14.4563 8.86029 14.0116 9.93442C10.7887 17.715 10.7888 26.285 14.0115 34.0656C14.2271 34.586 14.6323 34.9912 15.1527 35.2068C15.6731 35.4223 16.2462 35.4223 16.7665 35.2068C17.2869 34.9913 17.6922 34.586 17.9077 34.0656C18.1232 33.5453 18.1232 32.9722 17.9077 32.4518C16.5281 29.1214 15.8287 25.6049 15.8287 22C15.8287 18.3951 16.5282 14.8787 17.9077 11.5482C18.3527 10.474 17.8408 9.23807 16.7666 8.79321ZM33.6143 18.0059C33.5763 18.0458 33.5396 18.0869 33.5059 18.1308C33.2541 18.459 33.1451 18.8657 33.1991 19.2758C33.2531 19.686 33.4636 20.0506 33.7918 20.3025C34.4693 20.8224 35.4433 20.6942 35.9635 20.0165C36.124 19.8074 36.2258 19.5623 36.2647 19.3053L33.6143 18.0059ZM37.3858 19.8552C37.2905 20.1786 37.1364 20.4845 36.9277 20.7564C36.0001 21.9661 34.2612 22.1946 33.0519 21.2667C32.4661 20.8172 32.0905 20.1665 31.9941 19.4345C31.9013 18.7294 32.0789 18.0304 32.4938 17.4565L29.1425 15.8133L28.914 17.5491C28.8701 17.8817 28.5649 18.1161 28.2322 18.0723C27.8994 18.0284 27.6652 17.7232 27.709 17.3905L27.991 15.2486L19.2749 10.9749C19.2505 11.3232 19.1715 11.6733 19.0308 12.0132C16.3632 18.4533 16.3632 25.5466 19.0308 31.9865C19.1236 32.2105 19.1891 32.439 19.2306 32.6684L20.7915 31.928C20.485 31.5411 20.2874 31.0774 20.2213 30.5753C20.1249 29.8433 20.3194 29.1175 20.7689 28.5318C20.8442 28.4337 20.925 28.3415 21.011 28.2555C21.4385 27.8281 21.9916 27.5542 22.601 27.4739C23.3332 27.3775 24.0588 27.572 24.6447 28.0215C25.1706 28.4251 25.5224 28.9938 25.6602 29.6186L32.906 26.1818L32.6197 25.4906C32.5228 25.2566 32.5828 24.9967 32.7515 24.8281C32.8062 24.7733 32.8725 24.7282 32.9485 24.6966C33.2586 24.5682 33.6141 24.7155 33.7425 25.0255L34.0055 25.6602L41.7416 21.9908L37.3858 19.8552Z" fill="#363853"/>
<path d="M15.1127 27.8325C15.1134 27.8358 15.1153 27.8448 15.1159 27.8481C15.1817 28.1771 14.9684 28.4963 14.6395 28.5623C14.3112 28.6282 13.9913 28.4153 13.9244 28.0874C13.8802 27.8787 13.9489 27.6721 14.0896 27.5314C14.1692 27.4518 14.2717 27.3935 14.3898 27.3678C14.7177 27.2965 15.0414 27.5046 15.1127 27.8325Z" fill="#363853"/>
<path d="M15.5266 29.5534C15.8421 30.7063 16.234 31.8511 16.6916 32.9558C16.8201 33.2659 16.6726 33.6214 16.3627 33.7497C16.0526 33.8782 15.6972 33.7309 15.5688 33.4208C15.0918 32.2692 14.6832 31.0759 14.3544 29.8741C14.2948 29.6559 14.3619 29.4329 14.5112 29.2836C14.5833 29.2114 14.6747 29.1565 14.7801 29.1276C15.1039 29.0391 15.4381 29.2297 15.5266 29.5534Z" fill="#363853"/>
<path d="M29.9464 25.0548C29.8725 25.1512 29.7917 25.2434 29.7063 25.3288C28.7302 26.3049 27.1672 26.4065 26.0707 25.5651C24.8615 24.6373 24.6325 22.8986 25.5603 21.6894C25.6343 21.593 25.7151 21.5008 25.8005 21.4154C26.7766 20.4393 28.3396 20.3377 29.4362 21.1791C30.6453 22.107 30.8743 23.8456 29.9464 25.0548ZM28.6963 22.1433C28.0818 21.6718 27.2064 21.7283 26.6599 22.2748C26.6119 22.3228 26.5663 22.3748 26.5246 22.4292C26.0046 23.1068 26.133 24.081 26.8106 24.6009C27.425 25.0724 28.3004 25.0158 28.8469 24.4694C28.8949 24.4213 28.9405 24.3694 28.9822 24.3149C29.502 23.6373 29.3738 22.6631 28.6963 22.1433Z" fill="#363853"/>
<path d="M24.4898 19.8218C24.4159 19.9183 24.3351 20.0104 24.2497 20.0958C23.2735 21.0719 21.7105 21.1735 20.614 20.3321C20.0282 19.8826 19.6526 19.232 19.5561 18.4999C19.4597 17.7679 19.6542 17.0421 20.1036 16.4563C20.1775 16.36 20.2584 16.2679 20.3438 16.1825C21.3199 15.2064 22.8829 15.1047 23.9795 15.9462C25.1887 16.8739 25.4176 18.6125 24.4898 19.8218ZM23.2397 16.9102C22.6252 16.4387 21.7497 16.4953 21.2032 17.0418C21.1552 17.0898 21.1097 17.1418 21.0679 17.1961C20.8162 17.5244 20.7072 17.9311 20.7612 18.3413C20.8151 18.7514 21.0256 19.116 21.3539 19.3679C21.9684 19.8394 22.8438 19.7828 23.3902 19.2364C23.4383 19.1883 23.4839 19.1364 23.5256 19.0819C24.0454 18.4044 23.9172 17.4302 23.2397 16.9102Z" fill="#363853"/>
<path d="M23.4359 24.436L22.2891 25.9305C22.0852 26.1969 21.7034 26.2471 21.4371 26.0428C21.1708 25.8385 21.1206 25.457 21.3249 25.1908L22.4717 23.6962C22.4882 23.6746 22.5059 23.6545 22.5246 23.6358C22.7369 23.4235 23.079 23.3962 23.3236 23.584C23.5899 23.7882 23.6402 24.1697 23.4359 24.436Z" fill="#363853"/>
<path d="M19.5952 21.9347L20.3648 22.9375C20.5691 23.2038 20.519 23.5853 20.2527 23.7895C19.9864 23.9938 19.605 23.9436 19.4007 23.6773L18.6311 22.6745C18.4433 22.4298 18.4706 22.0878 18.6829 21.8754C18.7016 21.8567 18.7217 21.839 18.7432 21.8225C19.0095 21.6182 19.3909 21.6684 19.5952 21.9347Z" fill="#363853"/>
</svg>
