<svg width="20" height="20" viewBox="0 0 20 20" fill="none" xmlns="http://www.w3.org/2000/svg">
<path d="M9.98444 6.7618C8.1941 6.7618 6.73305 8.22285 6.73305 10.0132C6.73305 11.8035 8.1941 13.2646 9.98444 13.2646C11.7748 13.2646 13.2358 11.8035 13.2358 10.0132C13.2358 8.22285 11.7748 6.7618 9.98444 6.7618ZM19.7362 10.0132C19.7362 8.66677 19.7484 7.33256 19.6727 5.98859C19.5971 4.42753 19.241 3.0421 18.0995 1.90058C16.9555 0.756617 15.5725 0.40294 14.0115 0.327327C12.6651 0.251713 11.3308 0.263909 9.98688 0.263909C8.64047 0.263909 7.30625 0.251713 5.96228 0.327327C4.40123 0.40294 3.01579 0.759056 1.87427 1.90058C0.730311 3.04454 0.376634 4.42753 0.301021 5.98859C0.225407 7.335 0.237603 8.66921 0.237603 10.0132C0.237603 11.3572 0.225407 12.6938 0.301021 14.0378C0.376634 15.5988 0.73275 16.9843 1.87427 18.1258C3.01823 19.2697 4.40123 19.6234 5.96228 19.699C7.30869 19.7747 8.64291 19.7625 9.98688 19.7625C11.3333 19.7625 12.6675 19.7747 14.0115 19.699C15.5725 19.6234 16.958 19.2673 18.0995 18.1258C19.2434 16.9818 19.5971 15.5988 19.6727 14.0378C19.7508 12.6938 19.7362 11.3596 19.7362 10.0132ZM9.98444 15.0159C7.21601 15.0159 4.98175 12.7816 4.98175 10.0132C4.98175 7.24475 7.21601 5.01049 9.98444 5.01049C12.7529 5.01049 14.9871 7.24475 14.9871 10.0132C14.9871 12.7816 12.7529 15.0159 9.98444 15.0159ZM15.192 5.97395C14.5456 5.97395 14.0237 5.45198 14.0237 4.8056C14.0237 4.15923 14.5456 3.63725 15.192 3.63725C15.8384 3.63725 16.3604 4.15923 16.3604 4.8056C16.3606 4.95909 16.3305 5.1111 16.2718 5.25294C16.2132 5.39478 16.1271 5.52365 16.0186 5.63218C15.9101 5.74071 15.7812 5.82676 15.6394 5.88541C15.4975 5.94406 15.3455 5.97415 15.192 5.97395Z" fill="#363853"/>
</svg>
