<svg width="116" height="39" viewBox="0 0 116 39" fill="none" xmlns="http://www.w3.org/2000/svg">
<path d="M1.366 31C1.146 31 0.959 30.923 0.805 30.769C0.651 30.615 0.574 30.428 0.574 30.208V8.725C0.574 8.483 0.651 8.285 0.805 8.131C0.959 7.977 1.146 7.9 1.366 7.9H15.886C16.128 7.9 16.326 7.977 16.48 8.131C16.634 8.285 16.711 8.483 16.711 8.725V10.903C16.711 11.123 16.634 11.31 16.48 11.464C16.326 11.618 16.128 11.695 15.886 11.695H5.029V17.536H15.16C15.402 17.536 15.6 17.613 15.754 17.767C15.908 17.899 15.985 18.086 15.985 18.328V20.374C15.985 20.616 15.908 20.814 15.754 20.968C15.6 21.1 15.402 21.166 15.16 21.166H5.029V27.205H16.15C16.392 27.205 16.59 27.282 16.744 27.436C16.898 27.59 16.975 27.788 16.975 28.03V30.208C16.975 30.428 16.898 30.615 16.744 30.769C16.59 30.923 16.392 31 16.15 31H1.366Z" fill="#FF7A50"/>
<path d="M23.5443 31C23.3243 31 23.1373 30.923 22.9833 30.769C22.8293 30.615 22.7523 30.428 22.7523 30.208V8.725C22.7523 8.483 22.8293 8.285 22.9833 8.131C23.1373 7.977 23.3243 7.9 23.5443 7.9H37.8663C38.1083 7.9 38.3063 7.977 38.4603 8.131C38.6143 8.285 38.6913 8.483 38.6913 8.725V11.035C38.6913 11.277 38.6143 11.475 38.4603 11.629C38.3063 11.761 38.1083 11.827 37.8663 11.827H27.2733V18.097H37.2063C37.4483 18.097 37.6463 18.174 37.8003 18.328C37.9543 18.482 38.0313 18.68 38.0313 18.922V21.232C38.0313 21.452 37.9543 21.639 37.8003 21.793C37.6463 21.947 37.4483 22.024 37.2063 22.024H27.2733V30.208C27.2733 30.428 27.1963 30.615 27.0423 30.769C26.8883 30.923 26.6903 31 26.4483 31H23.5443ZM51.0934 31.33C49.3334 31.33 47.8484 31.022 46.6384 30.406C45.4504 29.79 44.5374 28.921 43.8994 27.799C43.2834 26.677 42.9314 25.368 42.8434 23.872C42.8214 23.476 42.8104 22.992 42.8104 22.42C42.8104 21.848 42.8214 21.364 42.8434 20.968C42.9314 19.45 43.2944 18.141 43.9324 17.041C44.5924 15.919 45.5164 15.05 46.7044 14.434C47.9144 13.818 49.3774 13.51 51.0934 13.51C52.8094 13.51 54.2614 13.818 55.4494 14.434C56.6594 15.05 57.5834 15.919 58.2214 17.041C58.8814 18.141 59.2554 19.45 59.3434 20.968C59.3654 21.364 59.3764 21.848 59.3764 22.42C59.3764 22.992 59.3654 23.476 59.3434 23.872C59.2554 25.368 58.8924 26.677 58.2544 27.799C57.6384 28.921 56.7254 29.79 55.5154 30.406C54.3274 31.022 52.8534 31.33 51.0934 31.33ZM51.0934 28.063C52.2594 28.063 53.1614 27.7 53.7994 26.974C54.4374 26.226 54.7894 25.137 54.8554 23.707C54.8774 23.377 54.8884 22.948 54.8884 22.42C54.8884 21.892 54.8774 21.463 54.8554 21.133C54.7894 19.725 54.4374 18.647 53.7994 17.899C53.1614 17.151 52.2594 16.777 51.0934 16.777C49.9274 16.777 49.0254 17.151 48.3874 17.899C47.7494 18.647 47.3974 19.725 47.3314 21.133C47.3094 21.463 47.2984 21.892 47.2984 22.42C47.2984 22.948 47.3094 23.377 47.3314 23.707C47.3974 25.137 47.7494 26.226 48.3874 26.974C49.0254 27.7 49.9274 28.063 51.0934 28.063ZM72.2727 31.33C70.5127 31.33 69.0277 31.022 67.8177 30.406C66.6297 29.79 65.7167 28.921 65.0787 27.799C64.4627 26.677 64.1107 25.368 64.0227 23.872C64.0007 23.476 63.9897 22.992 63.9897 22.42C63.9897 21.848 64.0007 21.364 64.0227 20.968C64.1107 19.45 64.4737 18.141 65.1117 17.041C65.7717 15.919 66.6957 15.05 67.8837 14.434C69.0937 13.818 70.5567 13.51 72.2727 13.51C73.9887 13.51 75.4407 13.818 76.6287 14.434C77.8387 15.05 78.7627 15.919 79.4007 17.041C80.0607 18.141 80.4347 19.45 80.5227 20.968C80.5447 21.364 80.5557 21.848 80.5557 22.42C80.5557 22.992 80.5447 23.476 80.5227 23.872C80.4347 25.368 80.0717 26.677 79.4337 27.799C78.8177 28.921 77.9047 29.79 76.6947 30.406C75.5067 31.022 74.0327 31.33 72.2727 31.33ZM72.2727 28.063C73.4387 28.063 74.3407 27.7 74.9787 26.974C75.6167 26.226 75.9687 25.137 76.0347 23.707C76.0567 23.377 76.0677 22.948 76.0677 22.42C76.0677 21.892 76.0567 21.463 76.0347 21.133C75.9687 19.725 75.6167 18.647 74.9787 17.899C74.3407 17.151 73.4387 16.777 72.2727 16.777C71.1067 16.777 70.2047 17.151 69.5667 17.899C68.9287 18.647 68.5767 19.725 68.5107 21.133C68.4887 21.463 68.4777 21.892 68.4777 22.42C68.4777 22.948 68.4887 23.377 68.5107 23.707C68.5767 25.137 68.9287 26.226 69.5667 26.974C70.2047 27.7 71.1067 28.063 72.2727 28.063ZM92.231 31.33C91.087 31.33 90.075 31.143 89.195 30.769C88.337 30.373 87.622 29.823 87.05 29.119C86.478 28.415 86.038 27.59 85.73 26.644C85.422 25.676 85.246 24.62 85.202 23.476C85.18 23.08 85.169 22.728 85.169 22.42C85.169 22.09 85.18 21.727 85.202 21.331C85.246 20.231 85.411 19.208 85.697 18.262C86.005 17.316 86.445 16.491 87.017 15.787C87.611 15.061 88.337 14.5 89.195 14.104C90.075 13.708 91.087 13.51 92.231 13.51C93.419 13.51 94.42 13.719 95.234 14.137C96.07 14.533 96.763 15.05 97.313 15.688V8.362C97.313 8.142 97.379 7.955 97.511 7.801C97.665 7.647 97.863 7.57 98.105 7.57H100.91C101.13 7.57 101.317 7.647 101.471 7.801C101.625 7.955 101.702 8.142 101.702 8.362V30.208C101.702 30.428 101.625 30.615 101.471 30.769C101.317 30.923 101.13 31 100.91 31H98.303C98.061 31 97.863 30.923 97.709 30.769C97.577 30.615 97.511 30.428 97.511 30.208V28.987C96.961 29.669 96.257 30.23 95.399 30.67C94.563 31.11 93.507 31.33 92.231 31.33ZM93.452 27.799C94.376 27.799 95.113 27.59 95.663 27.172C96.213 26.754 96.62 26.226 96.884 25.588C97.148 24.928 97.291 24.257 97.313 23.575C97.335 23.179 97.346 22.761 97.346 22.321C97.346 21.859 97.335 21.43 97.313 21.034C97.291 20.374 97.137 19.747 96.851 19.153C96.565 18.537 96.147 18.031 95.597 17.635C95.047 17.239 94.332 17.041 93.452 17.041C92.528 17.041 91.791 17.25 91.241 17.668C90.713 18.064 90.328 18.592 90.086 19.252C89.844 19.912 89.701 20.638 89.657 21.43C89.635 22.09 89.635 22.75 89.657 23.41C89.701 24.202 89.844 24.928 90.086 25.588C90.328 26.248 90.713 26.787 91.241 27.205C91.791 27.601 92.528 27.799 93.452 27.799Z" fill="#37383D"/>
</svg>
