<svg width="21" height="17" viewBox="0 0 21 17" fill="none" xmlns="http://www.w3.org/2000/svg">
<path d="M20.7632 2.27041C20.0084 2.59603 19.1869 2.83037 18.3408 2.92165C19.2192 2.39976 19.8771 1.57526 20.1909 0.602846C19.3666 1.09322 18.4635 1.43708 17.5218 1.61917C17.1282 1.1984 16.6522 0.863192 16.1234 0.634439C15.5946 0.405686 15.0243 0.288288 14.4482 0.289561C12.117 0.289561 10.2423 2.17914 10.2423 4.49794C10.2423 4.82356 10.2817 5.14917 10.3459 5.46246C6.85533 5.27992 3.74221 3.61235 1.67256 1.05921C1.29545 1.70333 1.09783 2.43674 1.10026 3.18313C1.10026 4.64348 1.84277 5.93115 2.97503 6.68846C2.30777 6.66218 1.65614 6.47878 1.07313 6.15317V6.20497C1.07313 8.24995 2.51868 9.94465 4.44525 10.3344C4.08352 10.4284 3.7114 10.4764 3.33766 10.4775C3.06384 10.4775 2.80483 10.4503 2.54334 10.4133C3.07617 12.0809 4.6278 13.2921 6.47544 13.3316C5.02989 14.4638 3.21925 15.1299 1.2532 15.1299C0.900449 15.1299 0.57483 15.1175 0.236877 15.0781C2.10178 16.2745 4.31451 16.9652 6.69745 16.9652C14.4334 16.9652 18.6664 10.5564 18.6664 4.99377C18.6664 4.81122 18.6664 4.62868 18.6541 4.44613C19.4731 3.8467 20.1909 3.10419 20.7632 2.27041Z" fill="#363853"/>
</svg>
