<svg width="135" height="40" viewBox="0 0 135 40" fill="none" xmlns="http://www.w3.org/2000/svg">
<rect x="0.5" y="0.499939" width="134" height="39" rx="6.5" fill="#0C0D10"/>
<rect x="0.5" y="0.499939" width="134" height="39" rx="6.5" stroke="#A6A6A6"/>
<path d="M91.7166 19.2009V21.4919H90.1011V22.9943H91.7166V28.0993C91.7166 29.8425 92.6038 30.5397 94.8357 30.5397C95.2279 30.5397 95.6014 30.4982 95.9282 30.4484V28.9626C95.6481 28.9875 95.4707 29.0041 95.1625 29.0041C94.1633 29.0041 93.7244 28.589 93.7244 27.6428V22.9943H95.9282V21.4919H93.7244V19.2009H91.7166Z" fill="white"/>
<path d="M101.614 30.6642C104.583 30.6642 106.404 28.8962 106.404 25.966C106.404 23.0524 104.574 21.2761 101.614 21.2761C98.6442 21.2761 96.8139 23.0524 96.8139 25.966C96.8139 28.8962 98.6349 30.6642 101.614 30.6642ZM101.614 29.0788C99.8676 29.0788 98.887 27.9416 98.887 25.966C98.887 24.007 99.8676 22.8615 101.614 22.8615C103.351 22.8615 104.341 24.007 104.341 25.966C104.341 27.9333 103.351 29.0788 101.614 29.0788Z" fill="white"/>
<path d="M107.962 30.4899H109.97V25.1525C109.97 23.8825 111.044 23.0275 112.566 23.0275C112.921 23.0275 113.519 23.0856 113.687 23.1354V21.3757C113.472 21.3259 113.089 21.301 112.79 21.301C111.464 21.301 110.334 21.9484 110.045 22.8366H109.895V21.4504H107.962V30.4899Z" fill="white"/>
<path d="M118.672 22.7951C120.157 22.7951 121.128 23.7165 121.175 25.1359H116.039C116.151 23.7248 117.187 22.7951 118.672 22.7951ZM121.165 28.0495C120.792 28.7551 119.961 29.1452 118.747 29.1452C117.141 29.1452 116.104 28.1408 116.039 26.5554V26.4557H123.22V25.8332C123.22 22.9943 121.511 21.2761 118.681 21.2761C115.815 21.2761 113.994 23.1105 113.994 25.9992C113.994 28.8879 115.777 30.6642 118.691 30.6642C121.016 30.6642 122.641 29.6681 123.098 28.0495H121.165Z" fill="white"/>
<path d="M78.5501 27.1518C78.705 29.3715 80.7859 30.791 83.8832 30.791C87.1934 30.791 89.2647 29.3026 89.2647 26.9281C89.2647 25.0611 88.0839 24.0287 85.2189 23.435L83.68 23.0995C81.8603 22.7209 81.1247 22.2133 81.1247 21.3272C81.1247 20.2087 82.2668 19.4774 83.98 19.4774C85.6061 19.4774 86.7288 20.1915 86.9321 21.3358H89.0421C88.9163 19.2451 86.845 17.7739 84.009 17.7739C80.9602 17.7739 78.9276 19.2451 78.9276 21.4562C78.9276 23.2802 80.0794 24.3642 82.6056 24.889L84.4059 25.2762C86.2546 25.6633 87.0676 26.2312 87.0676 27.1776C87.0676 28.2788 85.79 29.0789 84.0478 29.0789C82.1797 29.0789 80.8827 28.3304 80.6988 27.1518H78.5501Z" fill="white"/>
<path d="M57.7519 21.301C56.3698 21.301 55.1745 21.9152 54.5581 22.9445H54.4087V21.4504H52.4757V33.4948H54.4834V29.1203H54.6422C55.1745 30.0749 56.3231 30.6393 57.7705 30.6393C60.3386 30.6393 61.9728 28.8381 61.9728 25.966C61.9728 23.0939 60.3386 21.301 57.7519 21.301ZM57.1822 29.0373C55.5013 29.0373 54.4461 27.8586 54.4461 25.9743C54.4461 24.0817 55.5013 22.903 57.1916 22.903C58.8911 22.903 59.909 24.0568 59.909 25.966C59.909 27.8835 58.8911 29.0373 57.1822 29.0373Z" fill="white"/>
<path d="M68.9983 21.301C67.6162 21.301 66.4209 21.9152 65.8045 22.9445H65.6551V21.4504H63.7221V33.4948H65.7298V29.1203H65.8886C66.4209 30.0749 67.5695 30.6393 69.0169 30.6393C71.585 30.6393 73.2192 28.8381 73.2192 25.966C73.2192 23.0939 71.585 21.301 68.9983 21.301ZM68.4286 29.0373C66.7477 29.0373 65.6925 27.8586 65.6925 25.9743C65.6925 24.0817 66.7477 22.903 68.4379 22.903C70.1375 22.903 71.1554 24.0568 71.1554 25.966C71.1554 27.8835 70.1375 29.0373 68.4286 29.0373Z" fill="white"/>
<path d="M48.8734 30.4899H51.177L46.1343 18.075H43.8016L38.7589 30.4899H40.9851L42.2724 27.1948H47.5958L48.8734 30.4899ZM44.8567 20.3292H45.0212L47.0441 25.5773H42.8241L44.8567 20.3292Z" fill="white"/>
<path d="M40.1075 8.71088V14.6999H42.5402C44.5479 14.6999 45.7106 13.6 45.7106 11.6867C45.7106 9.80243 44.5386 8.71088 42.5402 8.71088H40.1075ZM41.1534 9.55756H42.4235C43.8195 9.55756 44.646 10.3461 44.646 11.6992C44.646 13.0729 43.8336 13.8532 42.4235 13.8532H41.1534V9.55756Z" fill="white"/>
<path d="M49.2713 14.787C50.7561 14.787 51.6666 13.903 51.6666 12.4379C51.6666 10.9811 50.7514 10.093 49.2713 10.093C47.7865 10.093 46.8713 10.9811 46.8713 12.4379C46.8713 13.903 47.7818 14.787 49.2713 14.787ZM49.2713 13.9943C48.3982 13.9943 47.9079 13.4257 47.9079 12.4379C47.9079 11.4584 48.3982 10.8857 49.2713 10.8857C50.1398 10.8857 50.6347 11.4584 50.6347 12.4379C50.6347 13.4216 50.1398 13.9943 49.2713 13.9943Z" fill="white"/>
<path d="M59.4202 10.1801H58.4164L57.5105 13.6291H57.4312L56.3853 10.1801H55.4234L54.3775 13.6291H54.3028L53.3923 10.1801H52.3744L53.7752 14.6999H54.8071L55.853 11.3713H55.9324L56.9829 14.6999H58.0242L59.4202 10.1801Z" fill="white"/>
<path d="M60.5763 14.6999H61.5802V12.0561C61.5802 11.3505 62.0518 10.9106 62.7942 10.9106C63.5366 10.9106 63.8915 11.2717 63.8915 11.998V14.6999H64.8953V11.7739C64.8953 10.6989 64.2697 10.093 63.1351 10.093C62.3693 10.093 61.865 10.3959 61.6176 10.8981H61.5429V10.1801H60.5763V14.6999Z" fill="white"/>
<path d="M66.4763 14.6999H67.4802V8.4162H66.4763V14.6999Z" fill="white"/>
<path d="M71.2557 14.787C72.7405 14.787 73.651 13.903 73.651 12.4379C73.651 10.9811 72.7358 10.093 71.2557 10.093C69.7709 10.093 68.8557 10.9811 68.8557 12.4379C68.8557 13.903 69.7662 14.787 71.2557 14.787ZM71.2557 13.9943C70.3826 13.9943 69.8923 13.4257 69.8923 12.4379C69.8923 11.4584 70.3826 10.8857 71.2557 10.8857C72.1242 10.8857 72.6191 11.4584 72.6191 12.4379C72.6191 13.4216 72.1242 13.9943 71.2557 13.9943Z" fill="white"/>
<path d="M76.6421 14.0234C76.0958 14.0234 75.6989 13.7868 75.6989 13.3801C75.6989 12.9816 76.0164 12.77 76.7168 12.7285L77.9588 12.6579V13.0356C77.9588 13.5959 77.3985 14.0234 76.6421 14.0234ZM76.3853 14.7746C77.053 14.7746 77.6086 14.5173 77.9121 14.0649H77.9915V14.6999H78.958V11.612C78.958 10.6574 78.2389 10.093 76.9643 10.093C75.811 10.093 74.9892 10.591 74.8865 11.3671H75.8577C75.9697 11.0475 76.3573 10.8649 76.9176 10.8649C77.6039 10.8649 77.9588 11.1347 77.9588 11.612V12.0021L76.5814 12.0727C75.3721 12.1391 74.6904 12.6081 74.6904 13.4216C74.6904 14.2475 75.4047 14.7746 76.3853 14.7746Z" fill="white"/>
<path d="M82.3646 14.7746C83.065 14.7746 83.658 14.4799 83.9615 13.986H84.0409V14.6999H85.0027V8.4162H83.9989V10.8981H83.9241C83.6487 10.4001 83.0603 10.1054 82.3646 10.1054C81.0806 10.1054 80.2542 11.0102 80.2542 12.4379C80.2542 13.8698 81.0713 14.7746 82.3646 14.7746ZM82.6495 10.9064C83.4899 10.9064 84.0175 11.4999 84.0175 12.4421C84.0175 13.3884 83.4946 13.9736 82.6495 13.9736C81.7997 13.9736 81.2907 13.3967 81.2907 12.4379C81.2907 11.4875 81.8043 10.9064 82.6495 10.9064Z" fill="white"/>
<path d="M91.5125 14.787C92.9973 14.787 93.9078 13.903 93.9078 12.4379C93.9078 10.9811 92.9927 10.093 91.5125 10.093C90.0277 10.093 89.1126 10.9811 89.1126 12.4379C89.1126 13.903 90.023 14.787 91.5125 14.787ZM91.5125 13.9943C90.6394 13.9943 90.1491 13.4257 90.1491 12.4379C90.1491 11.4584 90.6394 10.8857 91.5125 10.8857C92.381 10.8857 92.8759 11.4584 92.8759 12.4379C92.8759 13.4216 92.381 13.9943 91.5125 13.9943Z" fill="white"/>
<path d="M95.2367 14.6999H96.2405V12.0561C96.2405 11.3505 96.7121 10.9106 97.4545 10.9106C98.1969 10.9106 98.5518 11.2717 98.5518 11.998V14.6999H99.5557V11.7739C99.5557 10.6989 98.93 10.093 97.7954 10.093C97.0296 10.093 96.5254 10.3959 96.2779 10.8981H96.2032V10.1801H95.2367V14.6999Z" fill="white"/>
<path d="M104.179 9.05536V10.2009H103.371V10.9521H104.179V13.5046C104.179 14.3762 104.623 14.7248 105.739 14.7248C105.935 14.7248 106.121 14.704 106.285 14.6791V13.9362C106.145 13.9487 106.056 13.957 105.902 13.957C105.402 13.957 105.183 13.7495 105.183 13.2763V10.9521H106.285V10.2009H105.183V9.05536H104.179Z" fill="white"/>
<path d="M107.632 14.6999H108.636V12.0602C108.636 11.3754 109.094 10.9147 109.916 10.9147C110.625 10.9147 111.004 11.28 111.004 12.0021V14.6999H112.007V11.7822C112.007 10.7072 111.34 10.0971 110.257 10.0971C109.491 10.0971 108.954 10.4001 108.706 10.9064H108.627V8.4162H107.632V14.6999Z" fill="white"/>
<path d="M115.629 10.8525C116.371 10.8525 116.857 11.3132 116.88 12.0229H114.312C114.368 11.3173 114.886 10.8525 115.629 10.8525ZM116.876 13.4797C116.689 13.8325 116.273 14.0275 115.666 14.0275C114.863 14.0275 114.345 13.5253 114.312 12.7326V12.6828H117.903V12.3715C117.903 10.9521 117.048 10.093 115.634 10.093C114.2 10.093 113.29 11.0102 113.29 12.4545C113.29 13.8989 114.181 14.787 115.638 14.787C116.801 14.787 117.613 14.289 117.842 13.4797H116.876Z" fill="white"/>
<path d="M27.8651 20.3008C27.8895 18.6198 28.9051 17.0292 30.5162 16.1487C29.4998 14.8584 27.7974 14.0403 26.0262 13.991C24.137 13.8148 22.3056 14.9958 21.3429 14.9958C20.3616 14.9958 18.8794 14.0085 17.2834 14.0377C15.203 14.0975 13.2635 15.1488 12.2513 16.7656C10.0756 20.114 11.6985 25.035 13.7827 27.7417C14.8254 29.067 16.0441 30.5475 17.6388 30.495C19.1992 30.4374 19.782 29.6105 21.6656 29.6105C23.5317 29.6105 24.0785 30.495 25.7055 30.4616C27.3799 30.4374 28.4349 29.1303 29.441 27.7924C30.1903 26.8481 30.7668 25.8044 31.1493 24.6999C29.1815 23.9601 27.8674 22.1999 27.8651 20.3008Z" fill="white"/>
<path d="M24.792 12.211C25.705 11.2368 26.1547 9.98463 26.0458 8.7204C24.651 8.85062 23.3626 9.44318 22.4373 10.38C21.5325 11.2953 21.0616 12.5255 21.1506 13.7414C22.5459 13.7542 23.9176 13.1777 24.792 12.211Z" fill="white"/>
</svg>
