<svg width="34" height="34" viewBox="0 0 34 34" fill="none" xmlns="http://www.w3.org/2000/svg">
<g clip-path="url(#clip0_45786_19)">
<path d="M34 17C34 26.3744 26.3744 34 17 34C7.62563 34 9.09347e-08 26.3744 2.02723e-07 17C3.14511e-07 7.62563 7.62696 -3.14495e-07 17 -2.02723e-07C26.373 -9.09506e-08 34 7.62563 34 17ZM2.63361 17C2.63361 24.9206 9.07807 31.3664 17 31.3664C24.9219 31.3664 31.3664 24.9206 31.3664 17C31.3664 9.07807 24.9219 2.63361 17 2.63361C9.07807 2.6336 2.63361 9.07939 2.63361 17Z" fill="#D1D2DC"/>
<path d="M15.1828 9.48105L21.7669 16.0651C22.2778 16.5787 22.2778 17.4082 21.7669 17.9218L15.1828 24.5059C14.6904 24.9285 13.9622 24.9285 13.4697 24.5059C12.9179 24.0331 12.8534 23.2009 13.3262 22.6491L18.9752 17L13.3261 11.3378C12.8152 10.8242 12.8152 9.99464 13.3261 9.48105C13.8397 8.97012 14.6693 8.97012 15.1828 9.48105Z" fill="#D1D2DC"/>
</g>
<defs>
<clipPath id="clip0_45786_19">
<rect width="34" height="34" fill="white" transform="matrix(1.19249e-08 -1 -1 -1.19249e-08 34 34)"/>
</clipPath>
</defs>
</svg>
